HIERARCHY
ROOT Root
{
  OFFSET 0.0 0.0 0.0
  CHANNELS 6 Xposition Yposition Zposition Zrotation Yrotation Xrotation
  JOINT Hips
  {
    OFFSET 0.0 100.0 0.0
    CHANNELS 6 Xposition Yposition Zposition Zrotation Yrotation Xrotation
    JOINT Spine1
    {
      OFFSET 5.003913 -0.037094 -0.013727
      CHANNELS 3 Zrotation Yrotation Xrotation
      JOINT Spine2
      {
        OFFSET 7.125363 -1e-06 0.0
        CHANNELS 3 Zrotation Yrotation Xrotation
        JOINT Chest
        {
          OFFSET 7.594027 1e-06 0.0
          CHANNELS 3 Zrotation Yrotation Xrotation
          JOINT Neck1
          {
            OFFSET 26.313086 -0.460272 -0.181672
            CHANNELS 3 Zrotation Yrotation Xrotation
            JOINT Neck2
            {
              OFFSET 8.045911 0.0 0.0
              CHANNELS 3 Zrotation Yrotation Xrotation
              JOINT Head
              {
                OFFSET 6.432774 0.0 0.0
                CHANNELS 3 Zrotation Yrotation Xrotation
                JOINT HeadEnd
                {
                  OFFSET 16.169773 0.06451 0.00362
                  CHANNELS 3 Zrotation Yrotation Xrotation
                }
                JOINT Jaw
                {
                  OFFSET 0.108741 3.12938 0.002639
                  CHANNELS 3 Zrotation Yrotation Xrotation
                }
                JOINT LeftEye
                {
                  OFFSET 4.45173 8.166359 3.206392
                  CHANNELS 3 Zrotation Yrotation Xrotation
                }
                JOINT RightEye
                {
                  OFFSET 4.436895 8.135758 -3.222429
                  CHANNELS 3 Zrotation Yrotation Xrotation
                }
              }
            }
          }
          JOINT LeftShoulder
          {
            OFFSET 23.218927 5.195579 1.621656
            CHANNELS 3 Zrotation Yrotation Xrotation
            JOINT LeftArm
            {
              OFFSET 15.902118 2e-06 -2e-06
              CHANNELS 3 Zrotation Yrotation Xrotation
              JOINT LeftForeArm
              {
                OFFSET 28.739307 0.0 -1e-06
                CHANNELS 3 Zrotation Yrotation Xrotation
                JOINT LeftHand
                {
                  OFFSET 27.093981 -4e-06 0.0
                  CHANNELS 3 Zrotation Yrotation Xrotation
                  JOINT LeftHandThumb1
                  {
                    OFFSET 2.276781 3.380274 0.83384
                    CHANNELS 3 Zrotation Yrotation Xrotation
                    JOINT LeftHandThumb2
                    {
                      OFFSET 4.705309 -1e-06 -1e-06
                      CHANNELS 3 Zrotation Yrotation Xrotation
                      JOINT LeftHandThumb3
                      {
                        OFFSET 2.798515 0.0 3e-06
                        CHANNELS 3 Zrotation Yrotation Xrotation
                        JOINT LeftHandThumbEnd
                        {
                          OFFSET 3.180793 4e-06 -4e-06
                          CHANNELS 3 Zrotation Yrotation Xrotation
                        }
                      }
                    }
                  }
                  JOINT LeftHandIndex1
                  {
                    OFFSET 3.247786 2.352677 0.137192
                    CHANNELS 3 Zrotation Yrotation Xrotation
                    JOINT LeftHandIndex2
                    {
                      OFFSET 6.367095 1e-06 0.0
                      CHANNELS 3 Zrotation Yrotation Xrotation
                      JOINT LeftHandIndex3
                      {
                        OFFSET 3.662364 0.0 0.0
                        CHANNELS 3 Zrotation Yrotation Xrotation
                        JOINT LeftHandIndex4
                        {
                          OFFSET 2.329242 4e-06 -4e-06
                          CHANNELS 3 Zrotation Yrotation Xrotation
                          JOINT LeftHandIndexEnd
                          {
                            OFFSET 2.767823 1e-06 0.0
                            CHANNELS 3 Zrotation Yrotation Xrotation
                          }
                        }
                      }
                    }
                  }
                  JOINT LeftHandMiddle1
                  {
                    OFFSET 3.163612 0.945023 -0.406112
                    CHANNELS 3 Zrotation Yrotation Xrotation
                    JOINT LeftHandMiddle2
                    {
                      OFFSET 6.276789 3e-06 0.0
                      CHANNELS 3 Zrotation Yrotation Xrotation
                      JOINT LeftHandMiddle3
                      {
                        OFFSET 4.35652 -1e-06 4e-06
                        CHANNELS 3 Zrotation Yrotation Xrotation
                        JOINT LeftHandMiddle4
                        {
                          OFFSET 2.996877 0.0 8e-06
                          CHANNELS 3 Zrotation Yrotation Xrotation
                          JOINT LeftHandMiddleEnd
                          {
                            OFFSET 2.323256 3e-06 -4e-06
                            CHANNELS 3 Zrotation Yrotation Xrotation
                          }
                        }
                      }
                    }
                  }
                  JOINT LeftHandRing1
                  {
                    OFFSET 2.882606 -0.309162 0.107445
                    CHANNELS 3 Zrotation Yrotation Xrotation
                    JOINT LeftHandRing2
                    {
                      OFFSET 6.033198 0.0 4e-06
                      CHANNELS 3 Zrotation Yrotation Xrotation
                      JOINT LeftHandRing3
                      {
                        OFFSET 4.350578 3e-06 0.0
                        CHANNELS 3 Zrotation Yrotation Xrotation
                        JOINT LeftHandRing4
                        {
                          OFFSET 2.651321 2e-06 -7e-06
                          CHANNELS 3 Zrotation Yrotation Xrotation
                          JOINT LeftHandRingEnd
                          {
                            OFFSET 1.937663 1e-06 -4e-06
                            CHANNELS 3 Zrotation Yrotation Xrotation
                          }
                        }
                      }
                    }
                  }
                  JOINT LeftHandPinky1
                  {
                    OFFSET 2.865315 -1.525436 0.575687
                    CHANNELS 3 Zrotation Yrotation Xrotation
                    JOINT LeftHandPinky2
                    {
                      OFFSET 5.54936 1e-06 -8e-06
                      CHANNELS 3 Zrotation Yrotation Xrotation
                      JOINT LeftHandPinky3
                      {
                        OFFSET 3.070974 0.0 -4e-06
                        CHANNELS 3 Zrotation Yrotation Xrotation
                        JOINT LeftHandPinky4
                        {
                          OFFSET 1.549672 1e-06 0.0
                          CHANNELS 3 Zrotation Yrotation Xrotation
                          JOINT LeftHandPinkyEnd
                          {
                            OFFSET 1.952123 0.0 0.0
                            CHANNELS 3 Zrotation Yrotation Xrotation
                          }
                        }
                      }
                    }
                  }
                }
              }
            }
          }
          JOINT RightShoulder
          {
            OFFSET 23.161716 5.296122 -1.380114
            CHANNELS 3 Zrotation Yrotation Xrotation
            JOINT RightArm
            {
              OFFSET -16.027195 -2e-06 1.1e-05
              CHANNELS 3 Zrotation Yrotation Xrotation
              JOINT RightForeArm
              {
                OFFSET -28.736639 4e-06 2e-06
                CHANNELS 3 Zrotation Yrotation Xrotation
                JOINT RightHand
                {
                  OFFSET -27.133619 6e-06 0.0
                  CHANNELS 3 Zrotation Yrotation Xrotation
                  JOINT RightHandThumb1
                  {
                    OFFSET -2.274328 -3.351035 -0.83067
                    CHANNELS 3 Zrotation Yrotation Xrotation
                    JOINT RightHandThumb2
                    {
                      OFFSET -4.703594 -3e-06 2e-06
                      CHANNELS 3 Zrotation Yrotation Xrotation
                      JOINT RightHandThumb3
                      {
                        OFFSET -2.794935 -4e-06 -3e-06
                        CHANNELS 3 Zrotation Yrotation Xrotation
                        JOINT RightHandThumbEnd
                        {
                          OFFSET -3.183852 4e-06 1e-06
                          CHANNELS 3 Zrotation Yrotation Xrotation
                        }
                      }
                    }
                  }
                  JOINT RightHandIndex1
                  {
                    OFFSET -3.253496 -2.33755 -0.127667
                    CHANNELS 3 Zrotation Yrotation Xrotation
                    JOINT RightHandIndex2
                    {
                      OFFSET -6.344434 0.0 0.0
                      CHANNELS 3 Zrotation Yrotation Xrotation
                      JOINT RightHandIndex3
                      {
                        OFFSET -3.654871 0.0 -8e-06
                        CHANNELS 3 Zrotation Yrotation Xrotation
                        JOINT RightHandIndex4
                        {
                          OFFSET -2.327586 -1e-06 0.0
                          CHANNELS 3 Zrotation Yrotation Xrotation
                          JOINT RightHandIndexEnd
                          {
                            OFFSET -2.770001 3e-06 8e-06
                            CHANNELS 3 Zrotation Yrotation Xrotation
                          }
                        }
                      }
                    }
                  }
                  JOINT RightHandMiddle1
                  {
                    OFFSET -3.168223 -0.944764 0.411762
                    CHANNELS 3 Zrotation Yrotation Xrotation
                    JOINT RightHandMiddle2
                    {
                      OFFSET -6.266691 -1e-06 -4e-06
                      CHANNELS 3 Zrotation Yrotation Xrotation
                      JOINT RightHandMiddle3
                      {
                        OFFSET -4.348901 0.0 0.0
                        CHANNELS 3 Zrotation Yrotation Xrotation
                        JOINT RightHandMiddle4
                        {
                          OFFSET -3.00024 2e-06 -4e-06
                          CHANNELS 3 Zrotation Yrotation Xrotation
                          JOINT RightHandMiddleEnd
                          {
                            OFFSET -2.321477 -4e-06 -4e-06
                            CHANNELS 3 Zrotation Yrotation Xrotation
                          }
                        }
                      }
                    }
                  }
                  JOINT RightHandRing1
                  {
                    OFFSET -2.885654 0.293261 -0.119232
                    CHANNELS 3 Zrotation Yrotation Xrotation
                    JOINT RightHandRing2
                    {
                      OFFSET -6.032835 -1e-06 -4e-06
                      CHANNELS 3 Zrotation Yrotation Xrotation
                      JOINT RightHandRing3
                      {
                        OFFSET -4.33881 0.0 -4e-06
                        CHANNELS 3 Zrotation Yrotation Xrotation
                        JOINT RightHandRing4
                        {
                          OFFSET -2.654903 -4e-06 -4e-06
                          CHANNELS 3 Zrotation Yrotation Xrotation
                          JOINT RightHandRingEnd
                          {
                            OFFSET -1.935122 0.0 4e-06
                            CHANNELS 3 Zrotation Yrotation Xrotation
                          }
                        }
                      }
                    }
                  }
                  JOINT RightHandPinky1
                  {
                    OFFSET -2.866241 1.503904 -0.60527
                    CHANNELS 3 Zrotation Yrotation Xrotation
                    JOINT RightHandPinky2
                    {
                      OFFSET -5.553177 -2e-06 0.0
                      CHANNELS 3 Zrotation Yrotation Xrotation
                      JOINT RightHandPinky3
                      {
                        OFFSET -3.062664 -1e-06 -4e-06
                        CHANNELS 3 Zrotation Yrotation Xrotation
                        JOINT RightHandPinky4
                        {
                          OFFSET -1.546529 2e-06 4e-06
                          CHANNELS 3 Zrotation Yrotation Xrotation
                          JOINT RightHandPinkyEnd
                          {
                            OFFSET -1.952341 0.0 -4e-06
                            CHANNELS 3 Zrotation Yrotation Xrotation
                          }
                        }
                      }
                    }
                  }
                }
              }
            }
          }
        }
      }
    }
    JOINT LeftLeg
    {
      OFFSET -8.443107 2.567604 10.043214
      CHANNELS 3 Zrotation Yrotation Xrotation
      JOINT LeftShin
      {
        OFFSET 43.229198 1e-06 -1e-06
        CHANNELS 3 Zrotation Yrotation Xrotation
        JOINT LeftFoot
        {
          OFFSET 42.298611 1e-06 1e-06
          CHANNELS 3 Zrotation Yrotation Xrotation
          JOINT LeftToeBase
          {
            OFFSET 14.165858 1e-06 0.0
            CHANNELS 3 Zrotation Yrotation Xrotation
            JOINT LeftToeEnd
            {
              OFFSET 6.7141 -0.234461 0.0
              CHANNELS 3 Zrotation Yrotation Xrotation
            }
          }
        }
      }
    }
    JOINT RightLeg
    {
      OFFSET -8.303923 2.592729 -10.047278
      CHANNELS 3 Zrotation Yrotation Xrotation
      JOINT RightShin
      {
        OFFSET -43.369682 0.0 1e-06
        CHANNELS 3 Zrotation Yrotation Xrotation
        JOINT RightFoot
        {
          OFFSET -42.260784 4e-06 2e-06
          CHANNELS 3 Zrotation Yrotation Xrotation
          JOINT RightToeBase
          {
            OFFSET -14.222245 -2e-06 -1e-06
            CHANNELS 3 Zrotation Yrotation Xrotation
            JOINT RightToeEnd
            {
              OFFSET -6.660062 0.232574 -2e-06
              CHANNELS 3 Zrotation Yrotation Xrotation
            }
          }
        }
      }
    }
  }
}
MOTION
Frames: 4
Frame Time: 0.03333333333333333
0.0 0.0 0.0 0.0 -0.0 0.0 -0.125048 48.658413 -0.210838 91.531822 -63.410534 88.538475 12.763887 -0.73147 -1.061132 -5.605779 -0.5463 -0.097873 13.65772 0.539719 -1.96353 21.200285 -0.199058 3.171007 -2.598841 -0.45398 -0.022926 -19.336544 0.098953 -0.162083 6e-06 0.0 0.0 -0.268546 -0.011205 -0.016437 -0.314753 0.18933 -0.037932 -0.383143 -0.207862 -0.003664 -53.469158 -64.025513 56.393391 99.552467 -5.854362 -22.287626 5.935457 -0.934957 -0.028592 24.345428 70.281769 17.761288 17.636641 -26.322737 52.411205 -19.466665 -14.395598 29.410393 -2e-06 -8.774823 -2e-06 15.119727 -17.901146 6.807858 -0.609777 -1.795653 -3.889328 -4.80709 -11.046815 -2.93785 4e-06 -20.976021 -0.0 -5.019972 -25.033562 -4.031882 6e-06 1e-06 1e-06 -10.634536 -5.68697 -3.565588 10.573275 -17.922956 -3.1139 3e-06 -13.821213 1e-06 -0.501777 -31.181507 -4.027017 -10.802802 -58.576817 7.167268 -13.982716 -7.150198 -2.875042 13.772731 -8.401497 -3.218241 0.347734 -34.211559 0.771656 -0.963028 -17.733372 2.621021 0.0 -0.0 0.0 -17.346424 -20.095221 -4.201784 21.757566 -1.638375 3.866431 2e-06 -6.338825 0.0 -1.69759 -22.591751 -6.194008 -0.0 -4e-06 -2e-06 159.320099 -72.60096 22.376421 90.38652 -6.098827 -20.559628 4.210288 -1.039921 -0.076466 57.5569 76.912689 54.461849 22.182119 -20.375895 49.933319 -16.701811 -16.74353 28.476528 -2e-06 -12.690601 -1e-06 16.135267 -17.309616 2.611273 -0.105919 -1.513856 -4.275881 -5.03904 -5.612871 -2.953556 4e-06 -11.020525 -2e-06 -6.111297 -15.895336 -3.84047 0.0 -1e-06 -0.0 -10.283369 -5.680289 -4.341838 11.028294 -11.302406 -2.372633 -1.384269 -14.238581 -6.32012 -0.625439 -26.924194 -3.827601 -4.48846 -49.303986 -3.876386 -13.708524 -7.363478 -3.720939 18.141148 -14.052739 -3.242673 6e-06 -18.78727 -3e-06 -0.429712 -8.456046 2.555503 -1e-06 1e-06 0.0 -15.923536 -20.094482 -5.473583 30.41921 -7.190827 1.735926 2e-06 -8.162922 -0.0 -1.861902 -22.861469 -6.167942 1e-06 -3e-06 -1e-06 115.785187 -2.553185 -0.155414 109.249557 0.261028 0.332545 -68.002319 1.330177 -4.879975 -7.857371 1.622561 2.309948 -1.000001 -0.0 -0.0 -62.112309 -4.305933 7.545655 107.129349 -0.776543 -0.041806 -70.299255 10.758492 -16.823774 -7.865003 0.451205 2.106203 -1.000001 -0.0 0.0 
0.0 0.0 0.0 0.0 -0.0 0.0 -0.105075 48.634998 -0.147273 91.372757 -63.463326 88.640503 12.690787 -0.683663 -1.030646 -5.658365 -0.530717 -0.069679 13.770838 0.534266 -1.894273 21.222584 -0.284804 3.060918 -2.586763 -0.457346 -0.035702 -19.296431 0.063224 -0.20582 6e-06 -0.0 0.0 -0.269462 -0.053214 -0.017419 -0.307831 0.142572 -0.041252 -0.387054 -0.243044 -0.003479 -53.519005 -64.066772 56.757545 99.746414 -5.536349 -22.62826 5.655757 -0.845452 -0.025051 25.678558 70.047791 18.869198 17.636637 -26.322737 52.411213 -19.466665 -14.395604 29.410398 -1e-06 -8.774824 -1e-06 15.041931 -17.981901 6.858756 -0.609776 -1.795654 -3.889328 -4.80709 -11.046813 -2.937851 6e-06 -20.976019 -2e-06 -5.019969 -25.033556 -4.031881 6e-06 0.0 1e-06 -10.634537 -5.686969 -3.565589 10.573277 -17.922956 -3.113902 3e-06 -13.821211 1e-06 -0.501776 -31.181505 -4.027016 -10.727491 -58.687309 7.13269 -13.982718 -7.150199 -2.875044 13.772733 -8.401496 -3.218242 0.347737 -34.211555 0.771655 -0.963029 -17.733372 2.621021 0.0 -0.0 0.0 -17.34642 -20.095217 -4.201786 21.757566 -1.638377 3.866429 2e-06 -6.338825 0.0 -1.697588 -22.591749 -6.194009 0.0 -5e-06 -2e-06 159.150681 -72.536613 22.734127 90.470604 -5.904136 -20.696098 4.089094 -0.905998 -0.06665 57.256271 76.699699 54.12619 22.182116 -20.375891 49.933315 -16.701811 -16.74353 28.476528 -2e-06 -12.690601 -1e-06 16.029617 -17.296497 2.659979 -0.10592 -1.513856 -4.275881 -5.039041 -5.612869 -2.953556 4e-06 -11.020523 -2e-06 -6.111297 -15.89533 -3.840472 0.0 -0.0 0.0 -10.283369 -5.680288 -4.341837 11.028294 -11.302402 -2.372633 -1.384269 -14.238576 -6.320121 -0.625437 -26.924187 -3.827602 -4.531406 -49.378208 -3.797988 -13.708524 -7.363477 -3.720939 18.141148 -14.052739 -3.242675 6e-06 -18.787266 -2e-06 -0.429711 -8.456041 2.555504 -0.0 -1e-06 0.0 -15.923536 -20.094482 -5.473584 30.41921 -7.190828 1.735926 1e-06 -8.162922 0.0 -1.861902 -22.861467 -6.167942 -0.0 -3e-06 -2e-06 115.803795 -2.621883 -0.150318 109.196159 0.234746 0.344816 -67.912628 1.24692 -4.691516 -7.753114 1.652952 2.288305 -0.999999 0.0 0.0 -62.094296 -4.258118 7.449904 106.997871 -0.805971 -0.060047 -69.918343 10.770624 -16.641312 -7.865031 0.438487 2.10656 -1.000001 -0.0 -0.0 
0.0 0.0 0.0 0.0 -0.0 0.0 -0.081167 48.610977 -0.113889 91.358322 -63.492962 88.664009 12.615049 -0.65774 -0.988076 -5.699986 -0.500914 -0.035779 13.868654 0.514015 -1.874485 21.315285 -0.312507 2.934002 -2.581948 -0.494478 -0.036586 -19.376431 -0.020779 -0.241116 6e-06 0.0 -0.0 -0.267021 -0.088562 -0.01654 -0.341575 0.100505 -0.050321 -0.416539 -0.270545 0.004587 -53.302074 -64.097717 56.730125 99.827866 -5.36445 -22.717009 5.4932 -0.775542 -0.019664 25.974781 69.917923 18.893492 17.63662 -26.322718 52.411175 -19.466652 -14.395594 29.410378 -1e-06 -8.774818 -1e-06 15.030308 -18.000813 6.86382 -0.609776 -1.795651 -3.889326 -4.807086 -11.046809 -2.937849 4e-06 -20.976011 -0.0 -5.019968 -25.033546 -4.031879 6e-06 0.0 1e-06 -10.634529 -5.686967 -3.565586 10.573269 -17.922947 -3.113899 2e-06 -13.821205 1e-06 -0.501777 -31.181498 -4.027014 -10.636311 -58.757019 7.074639 -13.982708 -7.150197 -2.875041 13.772725 -8.401491 -3.21824 0.347735 -34.21154 0.771653 -0.963029 -17.733366 2.621019 0.0 -0.0 0.0 -17.346409 -20.095215 -4.201778 21.757551 -1.638373 3.866426 2e-06 -6.338821 0.0 -1.697588 -22.59174 -6.194005 0.0 -3e-06 -2e-06 159.163208 -72.502846 22.889322 90.374397 -5.740125 -20.634247 4.120285 -0.87608 -0.063307 57.314434 76.665665 54.538448 22.182116 -20.375891 49.933319 -16.701811 -16.74353 28.476528 -2e-06 -12.6906 -0.0 15.986787 -17.225697 2.702996 -0.105919 -1.513857 -4.27588 -5.03904 -5.612871 -2.953556 4e-06 -11.020525 -2e-06 -6.111297 -15.89533 -3.840469 0.0 -0.0 -0.0 -10.283369 -5.680288 -4.341837 11.028294 -11.302405 -2.372633 -1.384269 -14.238577 -6.32012 -0.625439 -26.924194 -3.8276 -4.539435 -49.414417 -3.717456 -13.708523 -7.363475 -3.720938 18.141148 -14.052739 -3.242675 6e-06 -18.787266 -2e-06 -0.429713 -8.456043 2.555503 -0.0 -1e-06 0.0 -15.923534 -20.094482 -5.473584 30.41921 -7.190827 1.735925 1e-06 -8.162921 -0.0 -1.861902 -22.861469 -6.167941 -1e-06 -4e-06 -1e-06 115.826828 -2.630436 -0.196034 109.193016 0.223624 0.355037 -68.046082 1.189882 -4.561645 -7.793225 1.661605 2.280285 -1.0 0.0 0.0 -62.073612 -4.257648 7.470574 106.954285 -0.807864 -0.055644 -69.831108 10.826827 -16.603067 -7.967053 0.43016 2.104425 -1.000002 0.0 -0.0 
0.0 0.0 0.0 0.0 -0.0 0.0 -0.079872 48.590939 -0.098283 91.312683 -63.532814 88.745819 12.54968 -0.631869 -0.953752 -5.737425 -0.480225 -0.01297 13.938846 0.543213 -1.883719 21.394674 -0.357243 2.823557 -2.578872 -0.533505 -0.05771 -19.490168 -0.08087 -0.243 6e-06 -0.0 0.0 -0.266737 -0.117447 -0.014711 -0.388012 0.069465 -0.060521 -0.452376 -0.297508 0.016309 -53.131996 -64.096077 56.714588 99.862343 -5.220788 -22.808901 5.43929 -0.735393 -0.022144 26.220751 69.875893 19.192907 17.636625 -26.322737 52.411194 -19.46666 -14.3956 29.410389 0.0 -8.774822 -1e-06 15.012114 -17.972483 6.873052 -0.609776 -1.795653 -3.889328 -4.807089 -11.046813 -2.937849 3e-06 -20.976019 0.0 -5.019972 -25.03356 -4.03188 6e-06 0.0 1e-06 -10.634533 -5.686968 -3.565587 10.573272 -17.922953 -3.113901 2e-06 -13.82121 1e-06 -0.501779 -31.181501 -4.027014 -10.598716 -58.792774 7.059816 -13.982712 -7.150198 -2.875041 13.772727 -8.401493 -3.218241 0.347731 -34.211555 0.771655 -0.96303 -17.73337 2.621019 1e-06 0.0 0.0 -17.346418 -20.095219 -4.201779 21.757557 -1.638372 3.866427 1e-06 -6.338824 0.0 -1.697591 -22.591751 -6.194005 0.0 -4e-06 -2e-06 159.24736 -72.457291 22.89957 90.224564 -5.674208 -20.556057 4.290039 -0.838465 -0.063467 57.310356 76.712639 54.921474 22.182114 -20.375898 49.933327 -16.701815 -16.74353 28.47654 -2e-06 -12.690601 0.0 16.006063 -17.175512 2.726898 -0.105919 -1.513856 -4.275882 -5.039041 -5.612873 -2.953557 4e-06 -11.020523 -2e-06 -6.111297 -15.895334 -3.840471 -0.0 -1e-06 -0.0 -10.28337 -5.680288 -4.341839 11.028294 -11.302405 -2.372634 -1.384268 -14.238579 -6.320122 -0.625438 -26.924192 -3.827604 -4.531312 -49.471443 -3.660473 -13.708524 -7.363477 -3.720939 18.14115 -14.052739 -3.242677 5e-06 -18.787268 -2e-06 -0.429713 -8.456043 2.555503 0.0 -1e-06 1e-06 -15.923536 -20.094486 -5.473586 30.419214 -7.190826 1.735924 2e-06 -8.162922 0.0 -1.861902 -22.861469 -6.167943 0.0 -4e-06 -1e-06 115.811279 -2.625721 -0.173734 109.228317 0.224126 0.361845 -68.297638 1.2349 -4.487157 -7.962284 1.660447 2.277941 -0.999999 0.0 0.0 -62.068661 -4.249428 7.488604 106.957253 -0.779967 -0.04943 -69.925819 10.797674 -16.716099 -8.140182 0.427213 2.105966 -1.000002 -0.0 -0.0 
